<?xml version="1.0" encoding="utf-8"?>
<!-- Generator: Adobe Illustrator 16.0.3, SVG Export Plug-In . SVG Version: 6.00 Build 0)  -->
<!DOCTYPE svg PUBLIC "-//W3C//DTD SVG 1.1//EN" "http://www.w3.org/Graphics/SVG/1.1/DTD/svg11.dtd">
<svg version="1.1" id="Ebene_1" xmlns="http://www.w3.org/2000/svg" xmlns:xlink="http://www.w3.org/1999/xlink" x="0px" y="0px"
	 width="800px" height="800px" viewBox="0 0 800 800" enable-background="new 0 0 800 800" xml:space="preserve">
<g>
	<path d="M700.768,62L477.198,384.954L716.5,744H560.846L402,497.584L234.769,744H83.893l240.277-358.229L104.956,62h149.877
		l146.137,235.323L554.285,62H701 M740.603,41h-40.066H554.285h-11.388l-6.213,9.544L401.378,258.43L272.668,51.143L266.506,41
		h-11.673H104.956H65.361l22.209,33.008l211.27,311.933L66.456,732.239L44.507,765h39.386h150.876h11.127l6.249-9.207
		L401.55,535.645l141.646,219.733l6.202,9.622h11.448H716.5h39.244l-21.772-32.65L502.468,385.172L717.806,73.949L740.603,41
		L740.603,41z"/>
</g>
<path id="moustache_1" stroke="#020202" stroke-width="4" d="M659.046,352.609l-1,1.197h-3v-1.197l0.742-1.412
	c0,0,2.459-5.037,4.258-6.966l0,0l0,0c0,0,7.666-8.778,13-11.969c5.332-3.192,11-4.788,17-4.788c6.666,0,12,1.197,16,3.591
	c4.666,2.394,9.666,5.984,15,10.772c4.666,4.788,9.332,10.772,14,17.953c4.666,7.182,8,14.762,10,22.741c2,8.778,3,17.556,3,26.332
	c0,9.576-1,18.354-3,26.335c-2,8.778-5.668,17.554-11,26.331c-4,8.779-8.668,15.961-14,21.545c-5.334,5.585-12.334,11.172-21,16.757
	c-8.668,6.384-18.668,11.173-30,14.363c-11.334,4.788-23.668,7.979-37,9.575c-12.668,1.597-27.334,1.597-44,0
	c-17.334,0-35.334-2.394-54-7.182c-18.668-4.787-36-10.373-52-16.757c-16-6.385-30-13.565-42-21.544
	c-11.334-7.979-20-15.161-26-21.545c-6.668-6.384-10.668-9.975-12-10.772c-1.334-0.797-3.334,0-6,2.395
	c-2,2.394-7.334,7.581-16,15.56c-8.668,7.979-19,15.16-31,21.545c-12,6.384-26.335,12.766-43.001,19.149
	c-16,6.386-34,11.569-54,15.561c-20,3.99-36.667,6.384-50,7.181c-12.667,0.799-22,0.4-28-1.196c-6,0-15.334-1.994-28-5.984
	c-13.334-3.991-24.667-8.378-34-13.166c-8.667-4.788-16-9.575-22-14.363c-6-6.384-11.334-13.166-16-20.348
	c-5.334-7.978-9.334-16.756-12-26.332c-2.667-9.575-4.334-19.552-5-29.925c-0.667-9.575-0.334-17.554,1-23.938
	c1.333-5.585,3.333-12.367,6-20.347c4-7.979,7-13.166,9-15.56c2.666-3.19,4.68-6.566,6-7.887c1.232-1.232,5-3.682,11-7.672
	s12.666-5.984,20-5.984c8,0,14.666,1.197,20,3.591l8,3.59l6,7.182v1.197h-2l-7.872-3.194c-2.344-1.31-7.795-2.391-13.128-1.593
	c-5.334,0.798-10,2.793-14,5.984c-3.334,3.991-6.334,8.777-9,14.362c-2.667,5.587-4,13.565-4,23.938c0,11.172,1.333,18.754,4,22.741
	c2,3.991,4.666,7.182,8,9.575c3.333,2.395,8,3.592,14,3.592c6.666,0,14.666-2.395,24-7.182c10-4.788,22.666-12.366,38-22.742
	c16-10.372,31.666-21.144,47-32.316c16-11.169,29.666-19.946,41-26.331c12-6.384,22-10.374,30-11.969
	c8.666-3.192,18.333-4.389,29.001-3.59c10.666,0.797,21,2.792,31,5.984c10,4.788,18.666,9.974,26,15.56
	c8,5.586,12.332,8.778,13,9.575c0.666,0.799,4.666-1.994,12-8.378c7.332-6.384,16-11.172,26-14.363c10-4.788,17.332-7.181,22-7.181
	c4.666-1.597,13-1.995,25-1.197c12,0.797,22.666,2.394,32,4.787c8.666,2.394,19.332,7.581,32,15.56
	c12.666,7.979,31,21.543,55,40.693c24,19.15,40.332,30.322,49,33.513c8,4.788,15.666,7.182,23,7.182c7.332,0,13.666-1.595,19-4.787
	c5.332-3.191,9.332-6.383,12-9.576c2.666-3.987,4-10.771,4-20.347c0-9.575-1.334-17.154-4-22.741
	c-2.668-5.584-5.668-10.371-9-14.362c-3.334-3.191-6.334-5.584-9-7.181c-3.334-1.596-7.334-2.394-12-2.394
	c-4,0-7.334,1.197-10,3.591C664.046,347.822,659.046,352.609,659.046,352.609z"/>
</svg>
